HIERARCHY
ROOT root
{
	OFFSET	0	13.1	24.9
	CHANNELS 6  Xposition Yposition Zposition Xrotation Yrotation Zrotation
	JOINT spine_1
	{
		OFFSET	0	9.99999	0
		CHANNELS 3  Xrotation Yrotation Zrotation
		JOINT spine_2
		{
			OFFSET	0	112	-10
			CHANNELS 3  Xrotation Yrotation Zrotation
			JOINT spine_3
			{
				OFFSET	0	206.5	19.3
				CHANNELS 3  Xrotation Yrotation Zrotation
				JOINT spine_4
				{
					OFFSET	0	110.4	14.6
					CHANNELS 3  Xrotation Yrotation Zrotation
					JOINT neck_1
					{
						OFFSET	0	71.8	-50.3
						CHANNELS 3  Xrotation Yrotation Zrotation
						JOINT neck_2
						{
							OFFSET	0	86.2	-25.8
							CHANNELS 3  Xrotation Yrotation Zrotation
							JOINT head_ee
							{
								OFFSET	0	179.8	-8.7
								CHANNELS 3  Xrotation Yrotation Zrotation
								End Site
								{
									OFFSET	1	0	0
								}
							}
						}
					}
					JOINT left_clavicle
					{
						OFFSET	-43.2	22.4	-70.8
						CHANNELS 3  Xrotation Yrotation Zrotation
						JOINT left_shoulder
						{
							OFFSET	-93.9	-5.79999	48.7
							CHANNELS 3  Xrotation Yrotation Zrotation
							JOINT left_elbow
							{
								OFFSET	-291.4	-30.8	15.2
								CHANNELS 3  Xrotation Yrotation Zrotation
								JOINT left_lowarm_twist
								{
									OFFSET	-110.7	-3.89999	13.6
									CHANNELS 3  Xrotation Yrotation Zrotation
									JOINT left_hand
									{
										OFFSET	-110.7	-3.89999	13.6
										CHANNELS 3  Xrotation Yrotation Zrotation
										JOINT left_ee
										{
											OFFSET	-80.8	-5.10001	12.1
											CHANNELS 3  Xrotation Yrotation Zrotation
											End Site
											{
												OFFSET	1	0	0
											}
										}
									}
								}
							}
						}
					}
					JOINT right_clavicle
					{
						OFFSET	43.2	22.4	-70.8
						CHANNELS 3  Xrotation Yrotation Zrotation
						JOINT right_shoulder
						{
							OFFSET	93.9	-5.79999	48.7
							CHANNELS 3  Xrotation Yrotation Zrotation
							JOINT right_elbow
							{
								OFFSET	291.4	-30.8	15.2
								CHANNELS 3  Xrotation Yrotation Zrotation
								JOINT right_lowarm_twist
								{
									OFFSET	110.7	-3.89999	13.6
									CHANNELS 3  Xrotation Yrotation Zrotation
									JOINT right_hand
									{
										OFFSET	110.7	-3.89999	13.6
										CHANNELS 3  Xrotation Yrotation Zrotation
										JOINT right_ee
										{
											OFFSET	80.8	-5.10001	12.1
											CHANNELS 3  Xrotation Yrotation Zrotation
											End Site
											{
												OFFSET	1	0	0
											}
										}
									}
								}
							}
						}
					}
				}
			}
		}
	}
	JOINT left_hip
	{
		OFFSET	-82.8	-127.5	0.300001
		CHANNELS 3  Xrotation Yrotation Zrotation
		JOINT left_knee
		{
			OFFSET	-28.2	-396.7	2.2
			CHANNELS 3  Xrotation Yrotation Zrotation
			JOINT left_ankle
			{
				OFFSET	-11.7	-411.3	35.4
				CHANNELS 3  Xrotation Yrotation Zrotation
				JOINT left_toes
				{
					OFFSET	0	-60	-88.6
					CHANNELS 3  Xrotation Yrotation Zrotation
					JOINT left_foot_ee
					{
						OFFSET	-22.5	-16.5	-42.2
						CHANNELS 3  Xrotation Yrotation Zrotation
						End Site
						{
							OFFSET	1	0	0
						}
					}
				}
			}
		}
	}
	JOINT right_hip
	{
		OFFSET	82.8	-127.5	0.300001
		CHANNELS 3  Xrotation Yrotation Zrotation
		JOINT right_knee
		{
			OFFSET	28.2	-396.7	2.2
			CHANNELS 3  Xrotation Yrotation Zrotation
			JOINT right_ankle
			{
				OFFSET	11.7	-411.3	35.4
				CHANNELS 3  Xrotation Yrotation Zrotation
				JOINT right_toes
				{
					OFFSET	0	-60	-88.6
					CHANNELS 3  Xrotation Yrotation Zrotation
					JOINT right_foot_ee
					{
						OFFSET	22.5	-16.5	-42.2
						CHANNELS 3  Xrotation Yrotation Zrotation
						End Site
						{
							OFFSET	1	0	0
						}
					}
				}
			}
		}
	}
}
MOTION
Frames: 12
Frame Time: 0.02
2489.65 731.853 -675.333 140.213 -73.3719 144.27 -2.09426 -0.23045 -0.572315 -2.0941 -0.193565 -0.585819 -2.09187 -0.0436872 -0.61542 -2.09237 -0.140331 -0.600798 -13.1314 3.36677 2.06787 -13.1364 5.11379 2.98098 -0.0 0.0 -0.0 4.39153 2.02368 8.55841 2.46941 -30.2301 56.1718 1.48394 -36.3172 0.48673 -83.8955 -8.31358 5.21038 4.93222 -21.147 24.1281 -0.0 0.0 -0.0 4.55069 27.969 -6.67921 -18.9454 2.62052 -71.7505 0.900295 24.0356 -0.19166 -17.0997 0.905549 -1.98203 0.746014 -21.2448 -13.0125 0.0 0.0 0.0 -5.02048 9.71432 1.0059 -15.8701 0.321955 2.40638 20.8079 8.37308 -2.8311 4.65286 -0.0 -0.0 -0.0 0.0 -0.0 19.1625 13.092 -8.90488 -57.5009 1.93626 -8.24439 11.1497 -24.4117 1.64695 27.2057 -0.0 -0.0 0.0 0.0 0.0 
2506.63 731.544 -676.625 140.789 -74.0869 144.648 -1.96409 -0.358557 -0.626403 -1.96393 -0.317971 -0.647948 -1.96001 -0.150647 -0.705864 -1.96061 -0.260232 -0.673216 -11.4773 3.20367 1.42571 -11.4843 5.13361 2.24745 -0.0 0.0 -0.0 4.45073 1.60409 8.65563 3.99604 -30.2636 55.4777 1.54303 -37.3907 0.522175 -83.802 -8.30185 5.21244 4.65889 -20.1212 22.7861 -0.0 0.0 -0.0 4.62956 27.9078 -6.85713 -18.9078 2.63059 -72.1367 0.830061 22.3517 -0.163996 -17.2597 0.91676 -1.99918 0.774643 -22.433 -13.5818 0.0 0.0 0.0 -7.08863 10.9935 1.57161 -13.0119 0.313434 1.96798 21.2081 7.48927 -2.87943 4.51602 -0.0 -0.0 -0.0 0.0 -0.0 22.8809 9.68095 -7.98173 -56.0305 1.78694 -8.0738 6.79693 -23.078 1.01071 27.034 -0.0 -0.0 0.0 0.0 0.0 
2530.84 731.622 -676.624 136.895 -75.2584 140.664 -1.93009 -0.39012 -0.744321 -1.92985 -0.341968 -0.767635 -1.92483 -0.145294 -0.827701 -1.92568 -0.274187 -0.794371 -12.0597 3.69922 1.3653 -12.0748 6.13806 2.35478 -0.0 0.0 -0.0 4.73053 2.77944 9.22902 6.30877 -28.6377 55.405 1.91463 -43.48 0.763534 -83.6076 -8.27743 5.21666 4.63657 -20.8404 22.2146 -0.0 0.0 -0.0 4.65262 27.5157 -6.94901 -21.0654 1.92594 -72.9037 0.798708 21.5864 -0.152266 -17.2478 0.915928 -1.99791 0.887183 -22.7405 -14.3577 0.0 0.0 0.0 -9.62552 9.94477 2.48985 -12.0172 0.305341 1.81557 21.8691 7.88051 -2.96008 4.29671 -0.0 -0.0 -0.0 0.0 -0.0 26.2801 9.67708 -8.21165 -55.6192 1.74597 -8.02542 7.80635 -23.0757 1.15742 27.2205 -0.0 -0.0 0.0 0.0 0.0 
2554.22 731.156 -684.046 136.784 -75.1747 140.156 -1.71273 -0.416159 -0.779135 -1.71247 -0.365739 -0.804035 -1.70688 -0.162819 -0.868171 -1.70781 -0.297883 -0.831565 -12.1914 3.40366 1.1358 -12.206 5.73017 2.05731 -0.0 0.0 -0.0 5.12805 3.14262 9.9924 9.04939 -24.5511 57.1869 2.11906 -46.3838 0.907962 -84.8775 -8.43661 5.18758 4.09283 -18.5591 19.6634 -0.0 0.0 -0.0 4.59722 27.1812 -6.86401 -22.8577 2.993 -73.0513 0.672853 18.4339 -0.109184 -18.2073 0.984139 -2.10008 1.1115 -23.443 -15.9274 0.0 0.0 0.0 -11.7956 10.8641 3.84871 -10.1436 0.282917 1.52898 21.2283 8.91839 -2.8834 1.79784 -0.0 -0.0 -0.0 0.0 -0.0 27.095 10.3462 -7.42729 -42.6908 0.646766 -6.3708 2.24414 -19.1125 0.332459 24.1459 -0.0 -0.0 0.0 0.0 0.0 
2580.2 731.565 -686.36 140.96 -75.8441 143.772 -1.45631 -0.438319 -0.881779 -1.45596 -0.381323 -0.907881 -1.44938 -0.157488 -0.97203 -1.45056 -0.309019 -0.934964 -11.1328 3.58119 1.24866 -11.1442 5.94858 2.16295 -0.0 0.0 -0.0 5.15617 3.54008 10.0538 10.1451 -20.7412 58.9626 2.46722 -50.7019 1.16907 -84.5507 -8.39571 5.1954 2.54698 -15.8301 10.3803 -0.0 0.0 -0.0 4.55985 24.8323 -7.02478 -24.301 5.49211 -72.3897 0.602611 16.6213 -0.0880267 -19.6015 1.0863 -2.24651 1.48315 -23.4043 -18.1685 0.0 0.0 0.0 -14.0948 11.675 5.48773 -5.48777 0.186731 0.821189 20.6357 10.0805 -2.81307 -3.36256 0.0 0.0 -0.0 0.0 -0.0 27.6092 10.5592 -5.99369 -34.8992 0.174543 -5.27118 -4.32295 -15.6982 -0.643518 23.074 -0.0 -0.0 0.0 0.0 0.0 
2603.81 727.447 -688.254 144.273 -76.1092 146.555 -1.17143 -0.527234 -0.905448 -1.1711 -0.468552 -0.93716 -1.16288 -0.240522 -1.01978 -1.16411 -0.39855 -0.969001 -10.9706 3.48566 1.18792 -10.981 5.80091 2.07088 -0.0 0.0 -0.0 4.90634 3.09358 9.57105 10.8389 -17.5852 59.7836 2.6966 -53.1718 1.34971 -84.7783 -8.4242 5.18998 1.81936 -13.9902 6.29324 -0.0 0.0 -0.0 4.46213 25.0822 -6.78735 -24.4822 6.53054 -73.1221 0.536164 14.8745 -0.0699905 -20.4554 1.15063 -2.33496 1.75701 -24.5989 -20.1759 0.0 0.0 0.0 -16.6306 12.306 7.04897 -2.21807 0.0849509 0.329777 22.0456 11.1533 -2.9891 -6.97691 0.0 0.0 -0.0 0.0 -0.0 28.1523 11.8091 -5.84085 -28.5903 -0.0954725 -4.34122 -10.362 -12.7598 -1.54944 21.1182 -0.0 -0.0 0.0 0.0 0.0 
2627.85 725.245 -689.594 146.784 -76.2997 148.035 -1.13651 -0.32155 -0.933386 -1.13606 -0.261508 -0.951953 -1.13122 -0.0361358 -0.986554 -1.13253 -0.191483 -0.968469 -10.6328 3.8005 1.91535 -10.6365 5.89608 2.84138 -0.0 0.0 -0.0 5.14762 1.66129 9.99513 11.2565 -14.9445 60.5308 2.79386 -54.1401 1.42806 -84.0443 -8.33225 5.20706 1.06141 -11.8293 2.12778 -0.0 0.0 -0.0 4.44218 24.7009 -6.78246 -24.5321 5.95063 -73.3859 0.447818 12.5079 -0.0490756 -21.2461 1.21136 -2.416 2.02123 -25.5224 -22.0357 0.0 0.0 0.0 -18.2043 12.4288 8.7653 -1.6518 0.0644796 0.245284 24.0889 11.0188 -3.23338 -8.98398 0.0 0.0 -0.0 0.0 -0.0 28.3662 11.1555 -4.97979 -23.5581 -0.23645 -3.58204 -13.2109 -9.0652 -1.97702 20.2429 -0.0 -0.0 0.0 0.0 0.0 
2645.3 720.898 -689.25 147.279 -75.8231 147.796 -1.14968 -0.262566 -0.902925 -1.14925 -0.204581 -0.917801 -1.14553 0.0116798 -0.940251 -1.14674 -0.136955 -0.930297 -11.588 4.23693 3.33093 -11.5742 5.85589 4.36915 -0.0 0.0 -0.0 4.29221 -0.246931 8.27214 11.2905 -14.2325 61.261 2.89774 -55.1266 1.51278 -81.834 -8.05401 5.25129 0.148867 -10.7122 -3.54936 -0.0 0.0 -0.0 4.29209 23.4838 -6.57771 -25.1055 8.70254 -72.5975 0.444056 12.4061 -0.0482642 -21.1869 1.20678 -2.40997 2.39337 -26.3129 -24.5289 0.0 0.0 0.0 -20.4166 12.3 9.79056 -0.689463 0.0277749 0.10216 25.4577 12.5468 -3.40174 -9.94196 0.0 0.0 -0.0 0.0 -0.0 28.6499 11.3884 -4.84796 -17.4589 -0.317232 -2.6501 -16.1195 -3.04458 -2.43031 15.547 -0.0 -0.0 0.0 0.0 0.0 
2660.64 717.967 -690.612 150.567 -74.6703 150.757 -1.15885 -0.133764 -0.924868 -1.15838 -0.0746437 -0.931504 -1.15677 0.14149 -0.923717 -1.15796 -0.00616343 -0.934469 -11.707 4.89404 4.33161 -11.6759 6.46159 5.51731 -0.0 0.0 -0.0 3.64818 -1.50315 6.94839 11.1091 -13.4585 61.7761 3.01706 -56.2023 1.6113 -79.7916 -7.7954 5.2825 -0.702863 -7.50054 -7.95332 -0.0 0.0 -0.0 4.13852 22.1498 -6.37462 -24.3639 12.0468 -71.3372 0.423575 11.8505 -0.043961 -20.7848 1.17579 -2.36882 2.97199 -25.9138 -28.144 0.0 0.0 0.0 -22.6686 12.257 11.1193 0.934766 -0.0396196 -0.137971 22.6377 15.1903 -3.08451 -10.343 0.0 0.0 -0.0 0.0 -0.0 28.7873 12.0015 -3.97694 -6.88315 -0.221593 -1.03248 -22.6555 7.45311 -3.54713 10.0935 -0.0 -0.0 0.0 0.0 0.0 
2679.12 715.26 -688.339 154.532 -73.9761 154.347 -1.2229 -0.0529578 -0.900009 -1.22245 0.00441712 -0.901555 -1.22219 0.212557 -0.876153 -1.22325 0.0715233 -0.898725 -10.8847 6.22428 5.53653 -10.8279 8.0933 6.98778 -0.0 0.0 -0.0 3.27778 -3.38608 6.09698 10.6647 -13.2338 61.3738 3.02799 -56.298 1.6204 -77.3297 -7.4822 5.30772 -1.4789 -3.213 -11.3772 -0.0 0.0 -0.0 4.41105 22.2249 -6.95742 -23.4648 13.7814 -70.6378 0.35817 10.0613 -0.031529 -19.5208 1.08029 -2.2381 3.74064 -23.4357 -32.9305 0.0 0.0 0.0 -24.2848 12.2299 12.1372 3.205 -0.145189 -0.470277 14.7156 18.6056 -2.09404 -10.6613 0.0 0.0 -0.0 0.0 -0.0 28.376 12.2943 -3.88477 2.14101 0.0940687 0.315046 -22.1874 16.4412 -3.68559 -0.304733 0.0 0.0 0.0 0.0 0.0 
2701.24 711.595 -688.703 156.708 -72.8549 156.181 -1.39318 0.000977517 -0.912384 -1.39272 0.0590305 -0.910473 -1.39333 0.270364 -0.87141 -1.39436 0.129354 -0.903169 -10.5063 6.52964 6.07351 -10.4312 8.26011 7.56189 -0.0 0.0 -0.0 3.20654 -4.40425 5.88365 10.0326 -13.1001 61.4867 3.04038 -56.4058 1.63071 -75.5336 -7.25303 5.31755 -2.05951 -0.926241 -14.3271 -0.0 0.0 -0.0 4.48768 22.002 -7.14453 -22.701 15.6612 -70.2726 0.337654 9.49582 -0.0280446 -19.2142 1.05756 -2.20608 4.20089 -21.7967 -36.0165 0.0 0.0 0.0 -25.2118 12.1425 12.618 4.02102 -0.186348 -0.588687 8.84878 21.243 -1.29736 -9.88564 0.0 0.0 -0.0 0.0 -0.0 28.1354 12.348 -3.71676 6.4691 0.319912 0.940309 -22.0496 23.1494 -3.90322 -6.43202 0.0 0.0 0.0 0.0 0.0 
2726.16 707.731 -689.66 155.6 -72.3978 154.479 -1.56688 0.00245897 -0.897836 -1.56643 0.0595833 -0.89586 -1.56703 0.27008 -0.856258 -1.56803 0.131466 -0.888163 -8.94569 6.73824 5.65983 -8.8774 8.71139 7.11639 -0.0 0.0 -0.0 3.2839 -4.88786 6.00436 9.39056 -13.1049 61.866 3.10588 -56.9657 1.68544 -77.0737 -7.44956 5.30957 -2.29481 -0.444057 -15.7305 -0.0 0.0 -0.0 4.58934 21.983 -7.3665 -23.4953 18.2142 -68.95 0.349609 9.82557 -0.0300508 -18.2793 0.989327 -2.1077 4.87553 -21.2398 -41.2548 0.0 0.0 0.0 -27.2194 11.0564 13.4279 3.60834 -0.165321 -0.528876 6.84013 22.7021 -1.01525 -9.53786 0.0 0.0 -0.0 0.0 -0.0 28.1887 12.8704 -3.10188 6.60661 0.32786 0.95989 -21.1373 27.055 -3.91657 -11.4558 0.0 0.0 0.0 0.0 0.0 
